<svg xmlns="http://www.w3.org/2000/svg" width="165" height="40" viewBox="0 0 165 40"><path fill="#A6A6A6" d="M160.27 39.99H4.73C2.12 39.99 0 37.87 0 35.267V4.728C0 2.12 2.122 0 4.73 0h155.54c2.605 0 4.73 2.12 4.73 4.727v30.54c0 2.605-2.124 4.722-4.73 4.722z"/><path d="M164.105 35.268c0 2.116-1.714 3.83-3.834 3.83H4.73c-2.12 0-3.84-1.714-3.84-3.83V4.725C.89 2.61 2.61.89 4.73.89h155.54c2.122 0 3.835 1.72 3.835 3.835v30.543z"/><g fill="#FFF"><path d="M30.497 19.763c-.03-3.223 2.695-4.792 2.82-4.864-1.544-2.205-3.936-2.507-4.775-2.53-2.01-.206-3.958 1.178-4.98 1.178-1.044 0-2.62-1.157-4.318-1.122-2.185.033-4.23 1.27-5.352 3.195-2.314 3.924-.588 9.69 1.628 12.86 1.11 1.555 2.405 3.287 4.1 3.226 1.66-.066 2.28-1.035 4.284-1.035 1.984 0 2.566 1.036 4.296.997 1.78-.027 2.903-1.56 3.973-3.127 1.282-1.78 1.796-3.532 1.817-3.623-.042-.015-3.458-1.29-3.493-5.154zM27.23 10.285c.89-1.094 1.5-2.58 1.332-4.09-1.292.056-2.908.875-3.838 1.945-.823.94-1.558 2.486-1.368 3.938 1.45.106 2.94-.717 3.873-1.793z"/></g><g fill="#FFF"><path d="M55.653 31.496h-1.96l-.262-5.264c-.124-2.377-.18-4.145-.167-5.3h-.056c-.398 1.48-.89 3.066-1.475 4.76l-1.96 5.692h-1.53l-1.793-5.6c-.536-1.693-.972-3.31-1.308-4.854h-.038c-.062 1.89-.137 3.69-.224 5.395l-.3 5.17h-1.884l.84-12.582h2.595l1.812 5.45c.448 1.345.84 2.79 1.176 4.333h.056c.398-1.605.82-3.05 1.27-4.332l1.885-5.45h2.594l.73 12.582zM64.483 31.496h-1.81l-.15-1.045h-.056c-.623.835-1.506 1.25-2.65 1.25-.86 0-1.55-.272-2.073-.82-.473-.497-.71-1.112-.71-1.847 0-1.107.464-1.955 1.392-2.54.927-.585 2.23-.87 3.91-.858v-.168c0-1.195-.626-1.79-1.88-1.79-.895 0-1.683.222-2.366.67l-.41-1.325c.844-.523 1.882-.783 3.112-.783 2.373 0 3.56 1.25 3.56 3.75v3.343c0 .907.044 1.628.13 2.163zm-2.09-3.117v-1.4c-2.23-.038-3.342.57-3.342 1.83 0 .472.13.827.39 1.063s.588.354.984.354c.446 0 .857-.14 1.235-.42.376-.28.608-.637.695-1.072.024-.1.037-.22.037-.356zM72.977 22.666l-.392 1.53c-.51-.247-1.095-.372-1.755-.372-.884 0-1.583.295-2.1.887s-.774 1.343-.774 2.25c0 .958.27 1.718.812 2.278.54.56 1.23.84 2.062.84.622 0 1.232-.125 1.83-.373l.28 1.512c-.66.31-1.493.467-2.5.467-1.382 0-2.483-.42-3.305-1.26-.822-.84-1.232-1.963-1.232-3.37s.442-2.56 1.326-3.462c.882-.902 2.07-1.354 3.564-1.354.845 0 1.573.143 2.183.428zM87.872 31.496h-2.146L84.55 27.8H80.46l-1.12 3.696H77.25l4.05-12.582h2.502l4.07 12.582zm-3.677-5.244l-1.064-3.287c-.11-.336-.323-1.125-.634-2.37h-.038c-.125.536-.324 1.325-.597 2.37l-1.044 3.287h3.38zM98.287 26.848c0 1.545-.416 2.764-1.25 3.66-.746.797-1.674 1.193-2.78 1.193-1.196 0-2.054-.427-2.577-1.286h-.037v4.78h-2.016V25.41c0-.97-.025-1.965-.076-2.986h1.774l.113 1.438h.037c.672-1.082 1.69-1.623 3.06-1.623 1.07 0 1.964.42 2.68 1.27.716.844 1.073 1.957 1.073 3.338zm-2.053.076c0-.885-.2-1.61-.598-2.186-.436-.596-1.02-.895-1.754-.895-.498 0-.95.164-1.354.494s-.67.762-.793 1.297c-.062.25-.094.455-.094.617v1.513c0 .66.202 1.217.608 1.67.404.455.93.682 1.576.682.76 0 1.35-.293 1.773-.877.426-.586.637-1.357.637-2.314zM108.723 26.848c0 1.545-.418 2.764-1.25 3.66-.748.797-1.674 1.193-2.783 1.193-1.193 0-2.053-.427-2.574-1.286h-.04v4.78h-2.015V25.41c0-.97-.024-1.965-.073-2.986h1.773l.11 1.438h.038c.672-1.082 1.693-1.623 3.062-1.623 1.07 0 1.963.42 2.678 1.27.717.844 1.075 1.957 1.075 3.338zm-2.053.076c0-.885-.2-1.61-.598-2.186-.436-.596-1.02-.895-1.756-.895-.498 0-.95.164-1.354.494s-.668.762-.793 1.297c-.063.25-.095.455-.095.617v1.513c0 .66.203 1.217.607 1.67.404.455.93.682 1.578.682.758 0 1.35-.293 1.773-.877.424-.586.637-1.357.637-2.314zM120.39 27.97c0 1.07-.374 1.94-1.118 2.612-.82.734-1.963 1.102-3.428 1.102-1.354 0-2.44-.262-3.26-.785l.467-1.68c.884.534 1.856.802 2.913.802.76 0 1.352-.17 1.775-.514s.635-.8.635-1.375c0-.51-.174-.94-.523-1.29-.348-.35-.926-.673-1.736-.972-2.2-.82-3.303-2.024-3.303-3.608 0-1.035.386-1.882 1.157-2.542.77-.66 1.8-.99 3.08-.99 1.146 0 2.098.198 2.857.597l-.504 1.643c-.71-.386-1.514-.58-2.408-.58-.71 0-1.264.176-1.662.524-.336.31-.504.69-.504 1.138 0 .498.193.908.578 1.232.336.3.945.623 1.83.97 1.082.437 1.88.946 2.39 1.532.51.583.765 1.312.765 2.183zM127.053 23.936h-2.223v4.406c0 1.12.393 1.68 1.178 1.68.36 0 .658-.03.895-.094l.057 1.53c-.398.15-.922.226-1.568.226-.797 0-1.418-.242-1.867-.73-.447-.483-.672-1.3-.672-2.444v-4.574h-1.324v-1.512h1.323v-1.66l1.98-.6v2.26h2.222v1.512zM137.076 26.885c0 1.395-.398 2.54-1.193 3.436-.834.923-1.94 1.382-3.324 1.382-1.333 0-2.394-.44-3.183-1.324-.79-.885-1.186-1.998-1.186-3.342 0-1.406.407-2.557 1.224-3.453.814-.896 1.914-1.344 3.295-1.344 1.33 0 2.4.44 3.21 1.323.77.86 1.156 1.966 1.156 3.322zm-2.09.066c0-.835-.182-1.554-.54-2.15-.425-.726-1.028-1.087-1.812-1.087-.81 0-1.426.36-1.85 1.086-.36.597-.54 1.327-.54 2.188 0 .836.18 1.555.54 2.152.436.725 1.047 1.086 1.83 1.086.77 0 1.375-.367 1.81-1.104.375-.61.562-1.335.562-2.17zM143.63 24.197c-.2-.037-.41-.055-.636-.055-.71 0-1.258.268-1.643.8-.335.476-.503 1.073-.503 1.794v4.76h-2.016l.02-6.215c0-1.046-.026-1.997-.075-2.856h1.754l.075 1.736h.055c.213-.598.55-1.076 1.008-1.438.45-.322.934-.484 1.457-.484.188 0 .355.012.504.037v1.922zM152.645 26.53c0 .362-.025.667-.074.915h-6.048c.025.896.318 1.58.88 2.055.51.422 1.167.635 1.978.635.895 0 1.71-.145 2.445-.43l.316 1.4c-.856.373-1.872.56-3.042.56-1.406 0-2.51-.413-3.312-1.24s-1.205-1.94-1.205-3.333c0-1.37.374-2.508 1.122-3.416.783-.97 1.842-1.457 3.174-1.457 1.307 0 2.295.485 2.967 1.456.534.77.802 1.722.802 2.855zm-1.922-.522c.012-.598-.12-1.113-.393-1.55-.348-.56-.883-.84-1.605-.84-.66 0-1.195.274-1.605.82-.336.44-.535.96-.598 1.57h4.2z"/></g><g fill="#FFF"><path d="M48.96 10.01c0 1.176-.353 2.062-1.058 2.657-.653.55-1.58.824-2.783.824-.597 0-1.107-.025-1.534-.077v-6.43c.557-.09 1.157-.137 1.805-.137 1.146 0 2.01.25 2.59.747.653.563.98 1.368.98 2.416zm-1.106.028c0-.763-.202-1.348-.606-1.756-.404-.407-.994-.61-1.77-.61-.33 0-.612.02-.845.067v4.888c.13.02.365.03.708.03.803 0 1.422-.224 1.858-.67s.656-1.096.656-1.95zM54.818 11.037c0 .725-.207 1.32-.62 1.785-.435.48-1.01.718-1.728.718-.692 0-1.243-.23-1.654-.69-.41-.458-.615-1.037-.615-1.735 0-.73.212-1.33.636-1.794s.994-.697 1.712-.697c.692 0 1.248.23 1.67.688.4.447.6 1.023.6 1.727zm-1.087.034c0-.434-.093-.807-.28-1.118-.22-.376-.533-.564-.94-.564-.42 0-.74.188-.96.564-.19.31-.282.69-.282 1.138 0 .435.094.808.28 1.12.228.375.544.563.952.563.4 0 .714-.19.94-.574.195-.318.29-.694.29-1.13zM62.675 8.72L61.2 13.432h-.96l-.61-2.047c-.156-.51-.282-1.02-.38-1.523h-.02c-.09.518-.216 1.025-.378 1.523l-.65 2.047h-.97L55.845 8.72h1.077l.533 2.24c.13.53.235 1.035.32 1.513h.02c.077-.394.206-.896.388-1.503l.67-2.25h.853l.64 2.202c.156.537.282 1.054.38 1.552h.028c.07-.485.178-1.002.32-1.552l.572-2.202h1.03zM68.107 13.433H67.06v-2.7c0-.832-.316-1.248-.95-1.248-.31 0-.562.114-.757.343-.193.23-.29.5-.29.808v2.796h-1.05v-3.366c0-.414-.012-.863-.037-1.35h.92l.05.738h.03c.12-.23.303-.418.542-.57.284-.175.602-.264.95-.264.44 0 .806.142 1.097.427.362.35.543.87.543 1.562v2.823zM70.998 13.433H69.95V6.556h1.048v6.877zM77.167 11.037c0 .725-.207 1.32-.62 1.785-.435.48-1.01.718-1.728.718-.693 0-1.244-.23-1.655-.69-.41-.458-.615-1.037-.615-1.735 0-.73.21-1.33.635-1.794s.994-.697 1.712-.697c.692 0 1.248.23 1.67.688.4.447.6 1.023.6 1.727zm-1.087.034c0-.434-.094-.807-.28-1.118-.22-.376-.534-.564-.94-.564-.422 0-.742.188-.962.564-.188.31-.28.69-.28 1.138 0 .435.093.808.28 1.12.227.375.543.563.95.563.4 0 .715-.19.94-.574.195-.318.292-.694.292-1.13zM82.24 13.433h-.942l-.077-.543h-.028c-.323.433-.782.65-1.377.65-.446 0-.806-.143-1.077-.427-.246-.258-.368-.58-.368-.96 0-.576.24-1.015.723-1.32.48-.303 1.16-.452 2.032-.445V10.3c0-.62-.326-.93-.978-.93-.465 0-.875.116-1.23.348l-.212-.688c.438-.27.98-.407 1.617-.407 1.233 0 1.85.65 1.85 1.95v1.736c0 .47.022.845.067 1.123zm-1.088-1.62v-.727c-1.157-.02-1.735.297-1.735.95 0 .246.067.43.202.553.134.122.305.183.51.183.23 0 .445-.073.642-.218s.317-.33.362-.558c.012-.05.018-.113.018-.184zM88.195 13.433h-.93l-.05-.757h-.03c-.296.576-.8.864-1.512.864-.57 0-1.04-.223-1.416-.67s-.562-1.024-.562-1.735c0-.763.203-1.38.61-1.853.395-.44.88-.66 1.455-.66.634 0 1.077.213 1.33.64h.02V6.556h1.047v5.607c0 .46.013.882.038 1.27zm-1.086-1.988v-.786c0-.137-.01-.247-.03-.33-.06-.253-.186-.465-.38-.636-.195-.17-.43-.257-.7-.257-.39 0-.697.155-.922.466-.224.31-.336.708-.336 1.193 0 .466.107.844.322 1.135.227.31.532.466.915.466.343 0 .62-.13.827-.388.202-.24.302-.527.302-.863zM97.158 11.037c0 .725-.207 1.32-.62 1.785-.435.48-1.01.718-1.728.718-.692 0-1.243-.23-1.654-.69-.41-.458-.615-1.037-.615-1.735 0-.73.212-1.33.636-1.794s.994-.697 1.712-.697c.692 0 1.248.23 1.67.688.4.447.6 1.023.6 1.727zm-1.087.034c0-.434-.093-.807-.28-1.118-.22-.376-.533-.564-.94-.564-.42 0-.74.188-.96.564-.19.31-.282.69-.282 1.138 0 .435.094.808.28 1.12.228.375.544.563.952.563.4 0 .714-.19.94-.574.195-.318.29-.694.29-1.13zM102.793 13.433h-1.048v-2.7c0-.832-.316-1.248-.95-1.248-.31 0-.562.114-.757.343-.193.23-.29.5-.29.808v2.796h-1.05v-3.366c0-.414-.012-.863-.037-1.35h.922l.05.738h.028c.122-.23.304-.418.543-.57.284-.175.602-.264.95-.264.44 0 .806.142 1.097.427.362.35.543.87.543 1.562v2.823zM109.846 9.504h-1.154v2.29c0 .582.204.873.61.873.19 0 .344-.016.467-.05l.027.796c-.207.078-.48.117-.814.117-.414 0-.737-.126-.97-.378-.233-.252-.35-.676-.35-1.27V9.503h-.688V8.72h.688v-.865l1.028-.31v1.173h1.155v.786zM115.442 13.433h-1.048v-2.68c0-.845-.316-1.268-.95-1.268-.485 0-.818.245-1 .735-.03.103-.048.23-.048.377v2.835h-1.048V6.556h1.048v2.84h.02c.33-.516.802-.774 1.416-.774.434 0 .792.142 1.077.427.354.354.532.882.532 1.58v2.803zM120.875 10.853c0 .188-.014.346-.04.475h-3.142c.013.466.164.82.455 1.067.266.22.608.33 1.028.33.466 0 .89-.074 1.27-.223l.165.728c-.445.194-.972.29-1.58.29-.73 0-1.305-.214-1.722-.644s-.625-1.007-.625-1.73c0-.712.193-1.304.582-1.776.407-.504.956-.756 1.648-.756.68 0 1.193.252 1.542.756.28.4.42.895.42 1.483zm-1-.27c.007-.312-.062-.58-.203-.806-.182-.29-.46-.437-.834-.437-.343 0-.62.142-.835.427-.174.227-.277.498-.31.815h2.182z"/></g></svg>